<svg width="157" height="157" viewBox="0 0 157 157" fill="none" xmlns="http://www.w3.org/2000/svg">
<path d="M78.3222 156.922C121.436 156.922 156.387 121.963 156.387 78.8377C156.387 35.7128 121.436 0.753235 78.3222 0.753235C35.2085 0.753235 0.257812 35.7128 0.257812 78.8377C0.257812 121.963 35.2085 156.922 78.3222 156.922Z" fill="#9A8DC6"/>
<path d="M109.232 111.599C109.402 111.74 109.577 111.876 109.748 112.018C110.404 112.524 111.397 112.854 110.725 114.022C108.556 117.812 108.79 122.137 108.196 126.238C107.374 131.911 107.525 137.671 107.598 143.402C107.612 144.531 107.554 145.679 107.831 146.779C108.361 148.871 108.439 150.739 105.934 151.619C95.2146 155.935 84.1202 157.657 72.5978 156.465C72.6513 156.407 72.7048 156.353 72.7632 156.295C70.482 156.343 68.269 155.555 65.9781 155.764C63.2252 155.083 60.3555 154.923 57.6853 153.867C57.0627 152.913 57.7485 151.984 57.7485 151.04C57.768 138.493 58.6337 125.893 55.122 113.599C54.9129 111.838 56.4547 111.945 57.4226 111.443C58.6191 111.609 59.1104 112.601 59.6892 113.458C63.731 119.495 67.0481 125.985 71.0949 132.013C74.6989 137.379 77.7972 143.052 81.2408 148.51C82.2038 150.043 82.768 150.028 83.6824 148.515C84.8498 146.579 86.1581 144.73 87.4324 142.862C88.128 141.845 88.8965 140.916 90.2048 140.668C92.6902 140.352 95.1903 140.507 97.6805 140.527C99.378 140.537 100.234 139.972 100.156 138.158C100.083 136.392 100.156 134.616 100.137 132.845C100.137 132.602 100.215 132.285 100.088 132.135C97.5152 129.089 99.8109 126.384 100.647 123.577C100.92 121.835 102.029 120.541 103.04 119.208C104.49 117.291 105.759 115.258 107.15 113.302C107.671 112.567 107.997 111.502 109.232 111.599Z" fill="#075384"/>
<path d="M46.7125 134.533C46.6882 134.304 46.7125 134.076 46.7806 133.857C47.7242 130.748 48.2738 127.537 49.1152 124.399C49.767 121.967 51.0802 119.909 52.053 117.666C52.4956 116.644 52.3448 115.457 53.157 114.543C53.7553 113.866 54.2465 113.151 55.2534 113.112C57.2232 115.481 57.1357 118.493 57.6318 121.271C59.3292 130.797 58.4635 140.434 58.6726 150.028C58.7018 151.439 58.5267 152.724 57.6901 153.877C53.0306 152.733 48.5656 151.079 44.4167 148.637C44.4703 148.311 44.5238 147.99 44.5773 147.664C44.7961 145.664 45.3311 143.704 45.2874 141.675C45.4576 140.921 45.1366 140.658 45.4771 138.863" fill="#0A4879"/>
<path d="M105.935 151.619C105.847 151.488 105.764 151.357 105.677 151.225C108.143 150.276 107.073 148.51 106.975 146.701C106.684 141.315 106.654 135.915 107.019 130.51C107.34 125.771 108.143 121.11 108.702 116.416C108.814 115.477 108.921 114.703 109.796 114.178C110.983 113.458 110.273 112.728 109.748 112.022C111.436 112.212 112.102 113.56 112.831 114.795C115.03 118.503 115.993 122.696 117.442 126.7C118.955 131.58 119.626 136.635 120.575 141.631C120.735 142.473 120.886 143.392 120.458 144.244C115.944 147.353 111.153 149.907 105.935 151.624V151.619Z" fill="#0A4879"/>
<path d="M65.978 155.764C68.5656 154.913 71.0461 156.504 73.7553 155.808C73.4148 156.577 72.9381 156.333 72.5977 156.465C70.3506 156.611 68.1667 156.158 65.9731 155.764H65.978Z" fill="#224465"/>
<path d="M50.9926 70.3384C51.2309 69.8714 51.4741 69.4043 51.7124 68.9373C51.4498 67.9496 51.9994 67.1761 52.369 66.349C54.869 63.9554 55.9926 64.2717 57.6317 67.8232C57.8797 68.4702 57.87 69.1513 57.8895 69.8276C57.8943 70.8736 57.8895 71.9195 57.8943 72.9655C57.8943 73.3207 57.8943 73.6807 57.8943 74.0359C57.9041 74.6926 57.8603 75.3592 57.9478 75.9868C57.9868 74.6148 58.0257 73.272 58.6871 72.046C59.9566 68.7718 62.3058 66.6361 65.5354 65.3371C68.1424 64.2911 70.6522 63.0067 73.2154 61.8488C75.0199 61.4304 76.7854 61.8488 78.41 62.4618C81.5714 63.6587 84.5481 62.7683 87.5783 62.097C88.9839 61.7856 90.3798 61.2991 91.8049 61.9851C94.3244 63.3035 97.0481 64.1452 99.6746 65.196C105.151 67.3902 107.938 71.4282 106.61 77.6603C106.542 77.9717 106.542 78.2977 106.528 78.6188C106.513 78.9447 106.411 78.5507 106.46 78.862C106.474 78.9642 106.382 79.0128 106.494 78.8182C106.601 78.6188 106.547 78.3463 106.552 78.1031C106.625 77.5533 106.824 77.0279 106.79 76.4635C106.776 75.7678 107.073 75.111 107.058 74.4153C107.087 73.8072 107.111 73.1991 107.262 72.6055C107.724 71.0244 107.379 69.2535 108.376 67.7988C109.558 66.602 110.92 65.9355 112.646 66.3588C114.456 68.1978 114.266 70.4552 113.819 72.6688C113.206 75.724 112.17 78.6625 110.686 81.421C108.434 82.433 107.311 84.3741 106.158 86.4515C103.157 91.8615 99.305 96.6195 94.4265 100.492C92.1308 102.832 89.3438 104.457 86.4936 105.99C82.5685 108.096 79.1395 106.525 75.8224 104.467C74.3876 103.577 73.1376 102.399 71.6882 101.514C71.1434 101.061 70.5841 100.628 69.9566 100.293C65.156 96.1428 61.1726 91.3361 58.512 85.5418C57.7581 83.9071 57.0821 82.5546 55.0198 82.4281C54.0519 82.3697 53.2445 81.6984 52.6317 80.9053C52.2718 80.2972 52.2377 79.5626 51.8972 78.9447C51.586 77.6798 51.2795 76.4197 50.9682 75.1548C50.0782 73.5493 50.1657 71.9487 50.9974 70.353L50.9926 70.3384Z" fill="#F7BA8D"/>
<path d="M107.369 109.979C108.6 110.354 109.111 111.818 108.381 112.879C106.012 116.323 103.259 119.515 101.435 123.319C98.6485 129.454 94.0716 134.46 90.7496 140.259C90.5016 140.687 90.093 140.97 89.7574 141.315C87.413 143.271 86.3235 146.146 84.4996 148.486L83.9743 149.162C83.1523 150.218 81.5278 150.131 80.8226 148.992C73.0161 136.396 65.3459 124.02 57.6756 111.648C57.3838 111.346 57.2719 110.986 57.306 110.573C57.5297 109.595 58.2836 109.123 59.1104 108.768C61.2602 107.843 63.4636 107.065 65.6474 106.228C66.7515 105.805 67.7048 105.892 68.3371 107.045C70.1124 112.888 72.5346 118.474 75.1173 123.991C76.8488 127.814 79.1056 131.24 82.52 133.789C83.2253 134.533 83.8479 134.382 84.4169 133.716C84.485 133.633 84.5628 133.555 84.6455 133.482C88.0453 130.641 90.2778 126.968 92.1018 122.998C92.3936 122.439 92.7438 121.923 93.2107 121.504C93.3372 121.388 93.4588 121.266 93.5512 121.125C95.9636 117.559 97.3012 113.536 98.4442 109.429C98.7555 108.301 98.7166 106.914 100.356 106.71C101.995 106.661 103.405 107.342 104.796 108.072C105.064 108.213 105.302 108.417 105.472 108.67C105.565 108.807 105.648 108.953 105.73 109.103C106.119 109.619 106.747 109.799 107.369 109.989V109.979Z" fill="#06426D"/>
<path d="M115.526 37.2073C119.422 36.1856 123.332 35.2223 127.223 34.1812C127.851 34.0985 128.483 34.079 129.106 33.9525C129.485 33.9817 129.85 34.0352 130.078 34.3952C130.171 39.9609 130.151 39.883 124.718 41.3328C122.783 41.8485 120.735 42.0042 118.926 42.9772C116.45 43.527 114.072 44.5973 111.455 44.4465C110.589 42.4323 110.696 40.355 111.017 38.2581" fill="#09385D"/>
<path d="M111.654 54.7361C111.63 52.1382 111.606 49.5451 111.581 46.9471C111.601 46.7914 111.625 46.6309 111.649 46.4752" fill="#E35A04"/>
<path d="M37.2912 41.8388C35.9634 41.6296 34.6307 41.4739 33.3418 41.0653C32.3787 40.7539 31.4157 40.4425 30.4527 40.1312C30.3311 39.9414 30.2484 39.7371 30.2095 39.5182C30.2581 37.7813 30.3116 36.0445 30.4381 34.3125L30.3943 34.2542C30.8953 33.9817 31.4449 34.1131 31.975 34.0547C36.6346 34.6823 41.0364 36.3997 45.6521 37.2656C57.2669 39.4452 68.6386 42.7583 80.2485 44.9914C80.9635 45.1276 81.6834 45.2638 82.3059 45.6871C82.7437 47.7353 81.8585 49.8711 82.7048 51.8949C82.6756 52.1674 82.5394 52.3717 82.3011 52.5079C78.7018 51.7344 75.122 50.9122 71.479 50.3138C65.9975 49.4186 60.4479 48.7569 55.1706 46.8693C54.1298 46.4996 53.6385 46.9423 53.6191 48.0029C53.5899 50.2651 53.5704 52.5225 53.6337 54.7848C53.6726 56.1957 54.7961 56.2832 55.7397 56.7211C57.2572 57.4265 59.4168 56.94 60.2047 59.0417C57.6366 60.2726 55.3652 58.959 53.0354 58.1855C52.8165 58.0298 52.622 57.8498 52.4518 57.6454C52.4518 54.2691 52.4615 50.8879 52.4372 47.5115C52.4323 46.6552 52.6706 45.7114 51.834 45.0498C50.4235 44.4514 48.8866 44.4076 47.4177 44.067L47.1988 44.0767L46.9897 44.0232" fill="#0A4879"/>
<path d="M89.7622 141.31C91.0463 137.053 94.1883 133.944 96.6299 130.422C98.2593 128.072 99.1834 125.236 101.44 123.319C101.11 124.385 100.818 125.465 100.429 126.511C99.9714 127.741 97.6513 129.045 100.677 130.062C100.871 130.125 100.934 130.792 100.939 131.176C100.959 134.003 100.915 136.829 100.968 139.656C100.993 140.94 100.409 141.344 99.2078 141.33C96.0609 141.291 92.9091 141.315 89.7622 141.315V141.31Z" fill="#065281"/>
<path d="M47.4226 131.035C49.4119 123.626 50.0685 115.574 57.2037 110.631C57.3448 110.436 57.4907 110.427 57.6512 110.612C57.6609 110.957 57.6706 111.302 57.6804 111.648C57.1697 112.631 55.944 112.436 55.2485 113.112C54.5286 114.538 51.9946 115.277 53.5656 117.603C53.7018 117.807 53.2883 118.113 52.9333 118.172C52.6366 118.221 52.3447 118.298 52.0481 118.366C54.1103 120.614 50.4916 120.536 50.4333 122.268C50.3652 124.355 49.4508 126.554 48.7455 128.564C48.1132 130.364 48.7844 132.621 47.0334 134.027C47.0578 133.015 47.1891 132.018 47.4226 131.035Z" fill="#13477A"/>
<path d="M94.1301 99.9716L94.5386 100.93C95.419 102.287 95.3022 103.864 95.4968 105.372C95.312 107.298 96.883 107.371 98.0941 107.824C98.6291 108.33 98.6923 108.987 98.5026 109.614C97.2283 113.832 95.9199 118.036 93.5318 121.796L92.6125 123.397C89.4073 126.408 78.0357 126.948 74.6018 124.219C71.8002 118.834 69.3002 113.326 67.9675 107.367C68.2837 106.515 69.1883 106.374 69.772 105.849C70.2146 105.401 70.2341 104.788 70.3994 104.229C70.5794 103.713 70.6134 103.173 70.6524 102.633C70.774 101.908 70.9442 101.212 71.7662 100.954C74.5726 101.976 76.4744 104.413 79.3002 105.537C82.0629 106.637 84.417 106.374 86.8586 105.022C89.4511 103.582 91.917 101.957 94.1349 99.9765L94.1301 99.9716Z" fill="#E3A67B"/>
<path d="M60.1027 59.1196C58.483 57.7817 56.3916 57.7038 54.4996 57.266C53.1523 56.9546 52.7729 56.4973 52.7972 55.2421C52.8507 52.4982 52.807 49.7543 52.8167 47.0153C52.8167 45.7747 52.8702 45.1422 54.5968 45.7698C59.3537 47.492 64.3002 48.4115 69.3488 49.0975C71.8294 49.4332 74.485 49.6278 76.9996 50.557C78.7603 51.209 80.8566 51.0095 82.4714 52.3133C82.0969 55.6313 82.4423 58.9347 82.8946 62.277C89.5726 60.4818 96.6689 59.4844 103.605 57.7282C105.113 57.3487 106.679 56.5362 108.264 57.5822C108.435 58.7012 107.559 59.0125 106.82 59.1682C101.684 60.2239 96.6933 61.9316 91.4598 62.5397C90.0833 61.9997 88.7458 62.4278 87.4715 62.8462C83.9938 63.9944 80.5551 64.0382 77.058 62.9192C75.8615 62.5397 74.6066 62.0775 73.2885 62.457C69.0035 62.4862 65.0249 60.8905 60.8906 60.1218C60.4286 60.0342 60.0006 59.7423 60.0978 59.1244L60.1027 59.1196Z" fill="#0A4C7E"/>
<path d="M106.363 77.9961C106.499 78.0496 106.64 78.0788 106.786 78.0739C106.917 78.828 106.698 79.4751 106.144 80.0832C105.565 79.2902 106.382 78.6821 106.363 77.9961Z" fill="#D39A70"/>
<path d="M58.7406 79.8837C59.1929 80.0637 59.1297 80.3945 59.1054 80.6864C59.0859 80.9053 59.0081 81.207 58.7017 80.9637C58.5363 80.8275 58.3904 80.5648 58.3904 80.3556C58.3904 80.195 58.6238 80.0345 58.7406 79.8837Z" fill="#BF8C66"/>
<path d="M74.5967 124.214C78.7163 124.759 82.8117 125.834 87.0043 124.798C88.872 124.336 90.7397 123.864 92.6074 123.397C90.7008 127.391 88.7212 131.332 84.8399 133.857C84.052 134.874 83.05 134.562 82.0627 134.295C78.7358 131.556 76.2504 128.194 74.5967 124.214Z" fill="#FDFDFD"/>
<path d="M93.5269 121.796C94.8936 118.084 96.2506 114.367 97.6271 110.66C97.9675 109.741 98.235 108.816 98.0891 107.824C98.8284 107.42 99.2613 105.717 100.453 107.279C99.7526 107.352 99.3975 107.566 99.2905 108.437C98.7409 112.932 96.3965 116.81 94.8206 120.95C94.6018 121.524 94.1835 121.86 93.5269 121.796Z" fill="#0F4373"/>
<path d="M117.467 31.4129C106.615 28.9269 95.7837 26.3289 84.9082 23.9499C81.8051 23.2737 78.736 21.8725 75.3897 22.8504C72.2185 23.7796 69.0132 24.6115 65.808 25.4143C55.1611 28.0755 44.5093 30.7075 33.8575 33.3492C33.2787 33.826 30.1658 33.2081 29.9324 34.3222C36.4742 36.7791 45.3215 38.1462 52.1212 39.5133C58.9791 40.895 65.6912 42.8459 72.5444 44.2032C75.8469 44.86 79.0911 45.8622 82.486 45.9887C83.4588 46.7379 84.5094 46.3487 85.5016 46.1249C92.3256 44.5827 99.0814 42.768 105.871 41.0701C106.625 40.8804 107.754 40.9436 107.758 39.6495C107.627 39.0462 106.718 39.0365 106.742 38.3116C105.419 37.1683 103.756 37.2316 102.17 37.0224C100.429 37.0759 98.6972 37.0564 97.0337 36.424C96.1631 36.3558 95.2584 36.7742 94.4267 36.2294C93.7361 35.8839 93.0649 35.485 92.2623 35.4558C91.5279 35.5093 90.7691 35.7185 90.1125 35.1688C89.5434 34.8039 88.9549 34.4731 88.4053 34.079C87.6563 33.6022 86.7759 33.6752 85.9539 33.5049C84.417 32.9211 82.8022 33.2227 81.2214 33.1011C80.059 32.9211 79.2224 32.347 78.8868 31.1697C79.0668 29.3793 80.1319 28.6496 81.8489 28.6933C82.7098 28.6982 83.4247 29.0582 84.0619 29.6031C84.8498 30.114 84.7623 31.2572 85.5989 31.7292C86.9608 32.2546 88.4296 32.4005 89.8012 32.9016C91.7516 33.2471 93.7409 33.4271 95.56 34.3028C96.0464 34.4487 96.5474 34.5363 97.0581 34.5412C97.9433 34.4779 98.809 34.5606 99.6407 34.8769C102.9 35.3731 106.027 36.6137 109.368 36.6672C110.317 36.4775 111.149 37.1586 111.645 38.7008L113.979 38.2289C118.644 37.4018 123.167 36.0104 127.729 34.7844C128.25 34.7698 129.422 34.2395 129.15 33.8309" fill="#075384"/>
<path d="M30.4479 39.6641H30.4284C29.8253 38.2484 30.5695 36.7061 30.0004 35.2904C29.9907 34.979 29.9858 34.6628 29.9761 34.3514C30.122 34.2541 30.2776 34.2395 30.4381 34.3174" fill="#014B84"/>
<path d="M108.751 57.2368C108.59 57.3827 108.43 57.5238 108.264 57.6698C104.918 58.0493 101.664 58.8471 98.4538 59.825C96.9996 60.2677 95.4577 60.4818 94.0083 60.7299C90.4918 61.3235 87.0287 62.0581 83.5851 62.9679C82.627 63.2208 81.5472 63.0068 80.3118 62.8073C82.1162 61.9997 82.4664 61.2894 81.7661 59.2655C81.0462 57.1979 80.7884 54.4734 82.481 52.3133C82.481 52.1577 82.4859 52.002 82.4859 51.8463C82.9966 50.9998 83.8915 50.8052 84.7427 50.5814C91.7612 48.7326 98.8089 47.0104 105.871 45.3271C108.162 44.7822 108.42 45.0449 108.498 47.5164C108.512 47.9883 108.381 48.4894 108.746 48.9029C109.368 50.9706 109.295 53.1015 109.315 55.2227C108.824 55.8113 108.566 56.4632 108.76 57.2368H108.751Z" fill="#075284"/>
<path d="M108.736 48.9029C107.559 48.1585 109.217 46.0033 107.389 45.8184C106.265 45.7065 105.069 46.412 103.892 46.699C96.7563 48.4212 89.6211 50.1289 82.4858 51.8462C81.1045 50.1727 81.0996 47.7596 82.4858 45.9936C90.7154 44.0232 98.945 42.0528 107.175 40.0728C107.389 40.0192 107.564 39.8003 107.753 39.6544C107.88 39.669 108.001 39.6933 108.118 39.7371C108.994 41.1139 108.104 42.7145 108.678 44.1302C108.702 45.7211 108.721 47.312 108.746 48.9077L108.736 48.9029Z" fill="#07395C"/>
<path d="M108.673 44.1254C107.948 42.7291 108.337 41.1918 108.114 39.7322C109.266 41.075 108.629 42.6416 108.673 44.1254Z" fill="#AF884C"/>
<path d="M30.0052 35.2904C30.8661 36.677 30.2775 38.2095 30.4332 39.6641C29.4945 38.2824 30.1365 36.7499 30.0052 35.2904Z" fill="#194779"/>
<path d="M109.762 86.9575C110.263 86.2132 110.249 85.3666 110.258 84.5201C110.784 83.5374 110.754 82.4817 110.696 81.4162C109.441 81.5865 107.89 81.4746 107.306 82.8027C104.31 89.6138 99.3877 94.9168 94.1299 99.9716C93.9257 100.434 94.0667 100.852 94.2904 101.261C94.4218 101.451 94.5288 101.645 94.6212 101.845C94.7136 102.647 94.8595 103.436 95.0881 104.209C95.1027 104.705 95.0881 105.202 95.1027 105.698C95.2097 107.308 96.1873 108.018 97.6805 108.203C98.7992 108.466 99.1299 106.384 100.458 107.274C102.228 107.298 103.619 108.534 105.312 108.807C105.453 108.899 105.594 108.996 105.74 109.094C105.793 108.515 105.847 107.931 105.896 107.352" fill="#3E2D1C"/>
<path d="M60.1025 59.1195C57.6658 58.6525 55.2339 58.1903 52.7971 57.7233C52.6901 57.6552 52.5782 57.6308 52.4517 57.6503C51.4303 61.3623 50.7835 65.0987 51.7124 68.9373C52.0237 68.2659 52.335 67.5945 52.6463 66.9231C54.6745 64.7338 55.3603 64.8214 56.6492 67.4145C56.7514 67.6237 56.9702 67.7745 57.1307 67.9545C57.1697 68.5724 57.2037 69.1902 57.2426 69.813C57.2475 70.9514 57.2572 72.0898 57.2621 73.2283C57.2718 73.5591 57.2767 73.8948 57.2864 74.2256C57.1453 75.15 57.228 76.0451 57.6366 76.8965C57.5734 77.5679 57.4615 78.2636 58.5558 78.7063C58.5656 76.376 58.6969 74.2986 59.1736 72.2698C60.6278 68.8254 63.478 66.9815 66.7417 65.5609C68.9547 64.5976 71.1094 63.4981 73.2932 62.457C72.5053 61.8148 71.5277 61.7613 70.5938 61.5472C67.0967 60.7445 63.5996 59.932 60.0977 59.1244L60.1025 59.1195Z" fill="#3E2D1C"/>
<path d="M106.362 77.9961C106.445 78.3415 106.586 78.3658 106.785 78.0739L107.228 76.6095C107.389 75.9673 107.549 75.3203 107.71 74.6781L107.855 72.8634C108.196 71.1704 108.536 69.4773 108.882 67.7843C108.347 66.9037 108.026 65.9647 108.157 64.9139C108.215 64.3106 108.274 63.7122 108.332 63.1089C108.75 61.1678 109.937 59.285 108.75 57.2319C108.522 57.3 108.361 57.4509 108.264 57.6649C107.865 57.9179 107.5 58.3023 107.068 58.4044C103.731 59.178 100.346 59.7666 97.0529 60.6764C95.1755 61.197 93.0402 61.0656 91.4644 62.53C93.8087 64.1549 96.6249 64.6804 99.1832 65.8188C104.889 68.3584 106.897 71.6958 106.362 77.9961Z" fill="#3E2D1C"/>
<path d="M70.3409 99.9035C69.8642 99.3732 69.4021 98.8331 68.9109 98.3174C65.1803 94.3767 61.513 90.3679 59.227 85.3763C58.3564 83.4741 57.8408 81.5524 55.1074 81.6983C54.2027 81.747 53.2251 80.3653 52.3058 80.1512L52.1501 80.3069C53.2007 87.8867 53.9498 95.5152 55.6861 102.993C55.6861 103.698 55.7056 104.399 56.1725 104.987C56.1482 105.98 56.1142 106.977 56.6492 107.877C56.6541 108.544 56.6297 109.215 57.0821 109.775C57.1258 110.062 57.1647 110.349 57.2085 110.636L57.4323 110.641L57.656 110.611C60.3457 108.33 63.9303 108.057 66.9459 106.51C67.3739 106.291 67.7241 106.943 67.9673 107.362C68.7844 107.026 69.6016 106.69 70.4138 106.35C71.192 105.912 70.8516 105.163 70.9197 104.525C71.2455 104.019 71.3282 103.465 71.2601 102.876C71.4304 102.234 71.5957 101.592 71.766 100.945C71.5228 100.278 71.0948 99.8694 70.3409 99.8937V99.9035Z" fill="#3E2D1C"/>
<path d="M95.6182 36.1759C97.7534 36.6673 99.8837 37.1538 102.019 37.6452C100.122 37.8446 98.2641 37.8203 96.5569 36.7938C95.7495 37.0614 94.9421 37.1392 94.1444 36.7451C93.4878 36.4386 92.8263 36.137 92.1697 35.8305C91.3623 36.0786 90.5598 36.1808 89.7718 35.7672C89.3 35.4267 88.8331 35.091 88.3613 34.7504C91.0316 33.938 93.3176 35.0813 95.6133 36.1759H95.6182Z" fill="#25476C"/>
<path d="M86.7125 35.2466H81.1045C81.1045 35.1347 81.1045 35.0228 81.1094 34.9109H86.7514C86.7368 35.0228 86.7222 35.1347 86.7076 35.2466H86.7125Z" fill="#01568E"/>
<path d="M86.0024 30.2113C86.9655 29.8951 87.4713 30.1091 87.875 30.7319C87.1892 30.8924 86.5277 31.1649 86.0024 30.2113Z" fill="#035399"/>
<path d="M103.619 38.9782C104.573 38.623 105.176 38.589 105.828 38.9101C105.215 39.3479 104.612 39.1922 103.619 38.9782Z" fill="#04509A"/>
<path d="M106.829 34.5704C106.158 34.8964 105.55 34.8672 104.743 34.5704C105.541 34.1909 106.144 34.2201 106.829 34.5704Z" fill="#07539D"/>
<path d="M89.7769 35.7623C90.5745 35.7818 91.3771 35.8061 92.1747 35.8256C91.3576 36.458 90.5551 36.4824 89.7769 35.7623Z" fill="#04529F"/>
<path d="M94.1494 36.7451C94.9519 36.7597 95.7545 36.7791 96.5619 36.7937C95.7448 37.4359 94.9422 37.4456 94.1494 36.7451Z" fill="#0C529B"/>
<path d="M97.0774 32.566C96.5813 32.9844 96.1095 32.9114 95.5793 32.6439C96.0755 32.2352 96.5472 32.2984 97.0774 32.566Z" fill="#045299"/>
<path d="M94.9519 27.2485C95.6718 26.9906 96.1046 26.9225 96.5667 27.2193C96.1144 27.662 95.6474 27.5404 94.9519 27.2485Z" fill="#025397"/>
<path d="M107.797 57.1054C107.068 56.2394 107.272 55.68 107.895 54.9843C108.371 55.7821 108.313 56.3562 107.797 57.1054Z" fill="#01558F"/>
<path d="M111.635 57.1589C112.33 56.3562 111.698 55.5437 111.654 54.7361C111.951 52.362 112.116 49.9927 111.708 47.6234C111.718 47.4969 111.727 47.3655 111.737 47.2391C111.854 46.9666 111.825 46.7136 111.65 46.4752L111.659 45.04C111.936 44.8162 111.936 44.5925 111.659 44.3735C111.436 42.3205 111.888 40.2285 111.27 38.1997C111.207 37.0321 110.521 36.458 109.427 36.278C109.184 36.278 108.945 36.3024 108.712 36.3656C108.702 36.3656 108.692 36.3753 108.678 36.3802C105.769 35.1688 102.661 34.765 99.5775 34.2736C98.7944 33.8163 97.9676 33.612 97.0629 33.7822C96.6008 33.7822 96.1388 33.7871 95.6767 33.792C93.9014 32.5611 91.8343 32.4833 89.7963 32.3033C88.4491 31.5735 86.9218 31.5832 85.4724 31.2719C85.4043 31.3351 85.3605 31.4032 85.3265 31.4713C85.2973 31.4567 85.2633 31.447 85.2341 31.4324C85.1417 30.5713 85.1417 29.681 84.3586 29.0826C83.6825 28.4842 83.0551 27.7641 81.9899 28.0998C79.2905 28.0317 78.3907 28.8491 78.3372 31.4227C78.4539 32.819 79.3197 33.4417 80.6086 33.6217C82.3352 34.2201 84.2029 33.4806 85.915 34.1958C86.737 34.3709 87.6319 34.2055 88.3664 34.7553C90.8372 34.8574 93.1621 35.704 95.56 36.171C95.5697 36.2245 95.5794 36.2829 95.6037 36.3461C97.7001 36.9981 99.8207 37.5138 102.019 37.6548C103.473 37.8592 104.933 38.0684 106.387 38.2727C106.387 38.2776 106.387 38.2824 106.387 38.2922C106.353 39.0706 106.854 39.5668 107.35 40.0582C107.515 40.2139 107.661 40.3842 107.807 40.5593C108.245 41.8437 108.016 43.1524 107.953 44.4562C108.089 45.9449 108.016 47.4385 108.079 48.9321C108.629 50.9754 108.099 53.155 108.867 55.1691C108.906 55.2372 108.955 55.2956 109.004 55.354C108.303 55.6946 108.23 56.3854 108.259 57.1346C108.794 59.1828 108.094 61.1142 107.715 63.07C107.578 63.7219 107.598 64.3836 107.54 65.0404C107.622 66.1399 107.647 67.2686 108.897 67.7989C110.156 67.3221 111.411 66.8453 112.671 66.3685C112.53 63.2792 111.46 60.2969 111.65 57.1687L111.635 57.1589ZM98.4588 34.4001C98.4588 34.4001 98.4491 34.4001 98.4442 34.4001C98.4442 34.4001 98.4539 34.4001 98.4588 34.4001Z" fill="#F4AF30"/>
</svg>
