<svg width="157" height="157" viewBox="0 0 157 157" fill="none" xmlns="http://www.w3.org/2000/svg">
<path d="M78.1933 156.922C121.307 156.922 156.258 121.963 156.258 78.8377C156.258 35.7128 121.307 0.753235 78.1933 0.753235C35.0795 0.753235 0.128906 35.7128 0.128906 78.8377C0.128906 121.963 35.0795 156.922 78.1933 156.922Z" fill="#BFBFC1"/>
<path d="M109.103 111.599C109.273 111.74 109.448 111.876 109.619 112.018C110.275 112.524 111.267 112.854 110.596 114.022C108.427 117.812 108.66 122.137 108.067 126.238C107.245 131.911 107.396 137.671 107.469 143.402C107.483 144.531 107.425 145.679 107.702 146.779C108.232 148.871 108.31 150.739 105.805 151.619C95.0854 155.935 83.991 157.657 72.4686 156.465C72.5221 156.407 72.5756 156.353 72.634 156.295C70.3529 156.343 68.1398 155.555 65.849 155.764C63.096 155.083 60.2264 154.923 57.5561 153.867C56.9336 152.913 57.6194 151.984 57.6194 151.04C57.6388 138.493 58.5046 125.893 54.9929 113.599C54.7838 111.838 56.3256 111.945 57.2935 111.443C58.49 111.609 58.9812 112.601 59.56 113.458C63.6019 119.495 66.919 125.985 70.9657 132.013C74.5698 137.379 77.6681 143.052 81.1116 148.51C82.0747 150.043 82.6389 150.028 83.5533 148.515C84.7206 146.579 86.029 144.73 87.3033 142.862C87.9988 141.845 88.7673 140.916 90.0757 140.668C92.5611 140.352 95.0611 140.507 97.5514 140.527C99.2489 140.537 100.105 139.972 100.027 138.158C99.9541 136.392 100.027 134.616 100.008 132.845C100.008 132.602 100.085 132.285 99.959 132.135C97.386 129.089 99.6817 126.384 100.518 123.577C100.791 121.835 101.9 120.541 102.911 119.208C104.361 117.291 105.63 115.258 107.021 113.302C107.542 112.567 107.868 111.502 109.103 111.599Z" fill="#075384"/>
<path d="M46.5833 134.533C46.559 134.304 46.5833 134.076 46.6514 133.857C47.595 130.748 48.1446 127.537 48.9861 124.399C49.6378 121.967 50.951 119.909 51.9238 117.666C52.3664 116.644 52.2156 115.457 53.0279 114.543C53.6261 113.866 54.1174 113.151 55.1242 113.112C57.0941 115.481 57.0065 118.493 57.5026 121.271C59.2001 130.797 58.3343 140.434 58.5435 150.028C58.5727 151.439 58.3976 152.724 57.561 153.877C52.9014 152.733 48.4364 151.079 44.2876 148.637C44.3411 148.311 44.3946 147.99 44.4481 147.664C44.667 145.664 45.202 143.704 45.1582 141.675C45.3285 140.921 45.0074 140.658 45.3479 138.863" fill="#0A4879"/>
<path d="M105.805 151.619C105.718 151.488 105.635 151.357 105.547 151.225C108.013 150.276 106.943 148.51 106.846 146.701C106.554 141.315 106.525 135.915 106.89 130.51C107.211 125.771 108.013 121.11 108.573 116.416C108.685 115.477 108.792 114.703 109.667 114.178C110.854 113.458 110.144 112.728 109.618 112.022C111.306 112.212 111.972 113.56 112.702 114.795C114.9 118.503 115.864 122.696 117.313 126.7C118.826 131.58 119.497 136.635 120.445 141.631C120.606 142.473 120.757 143.392 120.329 144.244C115.815 147.353 111.024 149.907 105.805 151.624V151.619Z" fill="#0A4879"/>
<path d="M65.8489 155.764C68.4364 154.913 70.917 156.504 73.6261 155.808C73.2856 156.577 72.809 156.334 72.4685 156.465C70.2214 156.611 68.0376 156.158 65.844 155.764H65.8489Z" fill="#224465"/>
<path d="M50.8634 70.3384C51.1017 69.8714 51.3449 69.4043 51.5833 68.9373C51.3206 67.9497 51.8702 67.1761 52.2399 66.349C54.7399 63.9554 55.8634 64.2716 57.5025 67.8232C57.7506 68.4702 57.7409 69.1513 57.7603 69.8276C57.7652 70.8736 57.7603 71.9196 57.7652 72.9655C57.7652 73.3207 57.7652 73.6807 57.7652 74.0359C57.7749 74.6927 57.7311 75.3592 57.8187 75.9868C57.8576 74.6148 57.8965 73.2721 58.558 72.0461C59.8274 68.7719 62.1767 66.6361 65.4063 65.3371C68.0133 64.2911 70.523 63.0067 73.0862 61.8488C74.8907 61.4304 76.6563 61.8488 78.2808 62.4618C81.4423 63.6587 84.419 62.7683 87.4491 62.097C88.8548 61.7856 90.2507 61.2991 91.6758 61.9851C94.1953 63.3035 96.919 64.1452 99.5455 65.196C105.022 67.3902 107.809 71.4282 106.481 77.6604C106.413 77.9717 106.413 78.2977 106.399 78.6188C106.384 78.9447 106.282 78.5506 106.331 78.862C106.345 78.9642 106.253 79.0128 106.365 78.8182C106.472 78.6188 106.418 78.3463 106.423 78.1031C106.496 77.5533 106.695 77.0279 106.661 76.4635C106.647 75.7678 106.943 75.111 106.929 74.4153C106.958 73.8072 106.982 73.1991 107.133 72.6055C107.595 71.0244 107.25 69.2535 108.247 67.7988C109.429 66.602 110.791 65.9355 112.517 66.3588C114.327 68.1978 114.137 70.4552 113.689 72.6688C113.077 75.7241 112.041 78.6626 110.557 81.421C108.305 82.433 107.182 84.3742 106.029 86.4516C103.028 91.8615 99.1758 96.6196 94.2974 100.492C92.0017 102.832 89.2147 104.457 86.3645 105.99C82.4394 108.096 79.0104 106.525 75.6933 104.467C74.2584 103.577 73.0084 102.399 71.559 101.514C71.0143 101.061 70.4549 100.628 69.8275 100.293C65.0269 96.1428 61.0434 91.3361 58.3829 85.5418C57.629 83.9071 56.9529 82.5546 54.8907 82.4281C53.9228 82.3697 53.1154 81.6984 52.5025 80.9054C52.1426 80.2972 52.1086 79.5626 51.7681 78.9447C51.4568 77.6798 51.1504 76.4197 50.8391 75.1548C49.949 73.5494 50.0366 71.9487 50.8683 70.353L50.8634 70.3384Z" fill="#F7BA8D"/>
<path d="M107.24 109.979C108.471 110.354 108.981 111.818 108.252 112.879C105.883 116.323 103.13 119.515 101.306 123.319C98.5192 129.454 93.9424 134.46 90.6204 140.259C90.3723 140.687 89.9637 140.97 89.6281 141.315C87.2838 143.271 86.1943 146.146 84.3703 148.486L83.845 149.162C83.0231 150.218 81.3985 150.131 80.6933 148.992C72.8868 136.396 65.2166 124.02 57.5463 111.648C57.2545 111.346 57.1426 110.986 57.1767 110.573C57.4004 109.595 58.1543 109.123 58.9812 108.768C61.131 107.843 63.3343 107.065 65.5181 106.228C66.6222 105.805 67.5755 105.892 68.2078 107.045C69.9831 112.888 72.4053 118.473 74.988 123.99C76.7195 127.814 78.9764 131.239 82.3908 133.789C83.096 134.533 83.7186 134.382 84.2877 133.716C84.3557 133.633 84.4336 133.555 84.5163 133.482C87.9161 130.641 90.1486 126.968 91.9725 122.998C92.2643 122.439 92.6145 121.923 93.0815 121.504C93.2079 121.388 93.3295 121.266 93.4219 121.125C95.8344 117.559 97.1719 113.535 98.3149 109.429C98.6262 108.301 98.5873 106.914 100.226 106.71C101.866 106.661 103.276 107.342 104.667 108.072C104.935 108.213 105.173 108.417 105.343 108.67C105.436 108.807 105.518 108.953 105.601 109.103C105.99 109.619 106.617 109.799 107.24 109.989V109.979Z" fill="#06426D"/>
<path d="M115.397 37.2073C119.293 36.1856 123.203 35.2223 127.094 34.1812C127.722 34.0985 128.354 34.079 128.976 33.9525C129.356 33.9817 129.721 34.0352 129.949 34.3952C130.042 39.9609 130.022 39.883 124.589 41.3328C122.654 41.8485 120.606 42.0042 118.796 42.9772C116.321 43.527 113.942 44.5973 111.326 44.4465C110.46 42.4323 110.567 40.355 110.888 38.2581" fill="#09385D"/>
<path d="M111.525 54.7361C111.501 52.1382 111.476 49.5451 111.452 46.9471C111.472 46.7915 111.496 46.6309 111.52 46.4752" fill="#E35A04"/>
<path d="M37.1619 41.8388C35.8341 41.6296 34.5014 41.4739 33.2125 41.0652C32.2495 40.7539 31.2864 40.4425 30.3234 40.1312C30.2018 39.9414 30.1191 39.7371 30.0802 39.5182C30.1288 37.7813 30.1823 36.0445 30.3088 34.3125L30.265 34.2541C30.766 33.9817 31.3156 34.1131 31.8458 34.0547C36.5053 34.6823 40.9071 36.3996 45.5229 37.2656C57.1377 39.4452 68.5093 42.7583 80.1193 44.9914C80.8342 45.1276 81.5541 45.2638 82.1767 45.6871C82.6144 47.7353 81.7292 49.871 82.5755 51.8949C82.5463 52.1674 82.4101 52.3717 82.1718 52.5079C78.5726 51.7344 74.9928 50.9122 71.3498 50.3138C65.8682 49.4186 60.3186 48.7569 55.0414 46.8693C54.0005 46.4996 53.5093 46.9423 53.4898 48.0029C53.4606 50.2651 53.4412 52.5225 53.5044 54.7848C53.5433 56.1956 54.6668 56.2832 55.6104 56.7211C57.1279 57.4265 59.2875 56.94 60.0754 59.0417C57.5073 60.2726 55.2359 58.959 52.9061 58.1855C52.6873 58.0298 52.4927 57.8498 52.3225 57.6454C52.3225 54.2691 52.3322 50.8878 52.3079 47.5115C52.303 46.6552 52.5414 45.7114 51.7048 45.0497C50.2943 44.4513 48.7573 44.4076 47.2884 44.067L47.0695 44.0767L46.8604 44.0232" fill="#0A4879"/>
<path d="M89.6331 141.31C90.9171 137.053 94.0591 133.944 96.5008 130.422C98.1302 128.072 99.0543 125.236 101.311 123.319C100.98 124.385 100.689 125.465 100.299 126.511C99.8422 127.741 97.5222 129.045 100.547 130.062C100.742 130.125 100.805 130.792 100.81 131.176C100.83 134.003 100.786 136.829 100.839 139.656C100.864 140.94 100.28 141.344 99.0786 141.33C95.9317 141.291 92.78 141.315 89.6331 141.315V141.31Z" fill="#065281"/>
<path d="M47.2934 131.035C49.2827 123.626 49.9393 115.574 57.0746 110.631C57.2156 110.436 57.3615 110.427 57.522 110.612C57.5318 110.957 57.5415 111.302 57.5512 111.648C57.0405 112.631 55.8148 112.436 55.1193 113.112C54.3995 114.538 51.8654 115.277 53.4364 117.603C53.5726 117.807 53.1592 118.113 52.8041 118.172C52.5074 118.221 52.2156 118.298 51.9189 118.366C53.9812 120.614 50.3625 120.536 50.3041 122.268C50.236 124.355 49.3216 126.554 48.6164 128.564C47.9841 130.364 48.6553 132.621 46.9043 134.027C46.9286 133.015 47.0599 132.018 47.2934 131.035Z" fill="#13477A"/>
<path d="M94.0008 99.9716L94.4093 100.93C95.2897 102.287 95.173 103.864 95.3675 105.372C95.1827 107.298 96.7537 107.371 97.9648 107.824C98.4998 108.33 98.5631 108.987 98.3734 109.614C97.099 113.832 95.7907 118.036 93.4025 121.796L92.4833 123.397C89.278 126.408 77.9064 126.948 74.4725 124.219C71.671 118.834 69.1709 113.326 67.8383 107.367C68.1544 106.515 69.0591 106.374 69.6427 105.849C70.0853 105.401 70.1048 104.788 70.2702 104.229C70.4501 103.713 70.4842 103.173 70.5231 102.633C70.6447 101.908 70.8149 101.212 71.6369 100.954C74.4433 101.976 76.3451 104.413 79.171 105.537C81.9336 106.637 84.2877 106.374 86.7294 105.022C89.3218 103.582 91.7877 101.957 94.0056 99.9765L94.0008 99.9716Z" fill="#E3A67B"/>
<path d="M59.9733 59.1196C58.3536 57.7817 56.2622 57.7038 54.3702 57.266C53.0229 56.9546 52.6435 56.4973 52.6678 55.2421C52.7213 52.4982 52.6776 49.7543 52.6873 47.0153C52.6873 45.7747 52.7408 45.1422 54.4675 45.7698C59.2243 47.492 64.1708 48.4115 69.2194 49.0975C71.7 49.4332 74.3556 49.6278 76.8702 50.557C78.6309 51.209 80.7273 51.0095 82.342 52.3133C81.9675 55.6313 82.3129 58.9347 82.7652 62.277C89.4432 60.4818 96.5396 59.4844 103.475 57.7281C104.983 57.3487 106.549 56.5362 108.135 57.5822C108.305 58.7012 107.43 59.0125 106.69 59.1682C101.554 60.2239 96.5639 61.9316 91.3304 62.5397C89.9539 61.9997 88.6164 62.4278 87.3421 62.8462C83.8644 63.9944 80.4257 64.0382 76.9286 62.9192C75.7321 62.5397 74.4772 62.0775 73.1591 62.457C68.8741 62.4862 64.8955 60.8905 60.7612 60.1218C60.2992 60.0342 59.8712 59.7423 59.9684 59.1244L59.9733 59.1196Z" fill="#0A4C7E"/>
<path d="M106.233 77.9961C106.369 78.0496 106.51 78.0788 106.656 78.0739C106.788 78.828 106.569 79.4751 106.014 80.0832C105.435 79.2902 106.253 78.6821 106.233 77.9961Z" fill="#D39A70"/>
<path d="M58.6115 79.8837C59.0639 80.0637 59.0007 80.3945 58.9763 80.6864C58.9569 80.9053 58.8791 81.207 58.5726 80.9637C58.4073 80.8275 58.2614 80.5648 58.2614 80.3556C58.2614 80.195 58.4948 80.0345 58.6115 79.8837Z" fill="#BF8C66"/>
<path d="M74.4677 124.214C78.5873 124.759 82.6827 125.834 86.8753 124.798C88.743 124.336 90.6107 123.864 92.4784 123.397C90.5718 127.391 88.5922 131.332 84.7109 133.857C83.9229 134.874 82.921 134.562 81.9336 134.295C78.6068 131.556 76.1214 128.194 74.4677 124.214Z" fill="#FDFDFD"/>
<path d="M93.3977 121.796C94.7644 118.084 96.1215 114.367 97.4979 110.66C97.8384 109.741 98.1059 108.816 97.96 107.824C98.6993 107.42 99.1322 105.717 100.324 107.279C99.6234 107.352 99.2683 107.566 99.1613 108.437C98.6117 112.932 96.2674 116.81 94.6915 120.95C94.4726 121.524 94.0543 121.86 93.3977 121.796Z" fill="#0F4373"/>
<path d="M117.338 31.4129C106.486 28.9269 95.6546 26.3289 84.7791 23.9499C81.6759 23.2736 78.6069 21.8725 75.2606 22.8504C72.0893 23.7796 68.8841 24.6115 65.6788 25.4143C55.0319 28.0755 44.3801 30.7075 33.7283 33.3492C33.1495 33.826 30.0367 33.2081 29.8032 34.3222C36.3451 36.7791 45.1924 38.1462 51.992 39.5133C58.85 40.895 65.5621 42.8458 72.4152 44.2032C75.7178 44.86 78.9619 45.8622 82.3569 45.9887C83.3296 46.7379 84.3802 46.3487 85.3724 46.1249C92.1964 44.5827 98.9523 42.768 105.742 41.0701C106.496 40.8804 107.624 40.9436 107.629 39.6495C107.498 39.0462 106.588 39.0365 106.613 38.3116C105.29 37.1683 103.626 37.2315 102.041 37.0223C100.3 37.0759 98.568 37.0564 96.9046 36.424C96.034 36.3558 95.1293 36.7742 94.2976 36.2294C93.6069 35.8839 92.9357 35.485 92.1332 35.4558C91.3987 35.5093 90.64 35.7185 89.9834 35.1688C89.4143 34.8039 88.8258 34.4731 88.2762 34.079C87.5271 33.6022 86.6468 33.6752 85.8248 33.5049C84.2878 32.9211 82.673 33.2227 81.0923 33.1011C79.9298 32.9211 79.0933 32.347 78.7576 31.1697C78.9376 29.3793 80.0028 28.6496 81.7197 28.6933C82.5806 28.6982 83.2956 29.0582 83.9328 29.6031C84.7207 30.1139 84.6332 31.2572 85.4697 31.7292C86.8316 32.2546 88.3005 32.4005 89.6721 32.9016C91.6225 33.247 93.6118 33.4271 95.4308 34.3028C95.9172 34.4487 96.4182 34.5363 96.9289 34.5412C97.8141 34.4779 98.6799 34.5606 99.5116 34.8769C102.77 35.3731 105.898 36.6137 109.239 36.6672C110.188 36.4775 111.019 37.1586 111.516 38.7008L113.85 38.2289C118.515 37.4018 123.038 36.0104 127.6 34.7844C128.121 34.7698 129.293 34.2395 129.02 33.8309" fill="#075384"/>
<path d="M30.3186 39.6641H30.2991C29.696 38.2484 30.4402 36.7061 29.8711 35.2904C29.8614 34.979 29.8565 34.6628 29.8468 34.3514C29.9927 34.2541 30.1484 34.2395 30.3089 34.3174" fill="#014B84"/>
<path d="M108.621 57.2367C108.461 57.3827 108.3 57.5238 108.135 57.6697C104.789 58.0492 101.535 58.8471 98.3247 59.825C96.8704 60.2677 95.3286 60.4817 93.8792 60.7299C90.3626 61.3234 86.8996 62.058 83.456 62.9678C82.4978 63.2208 81.418 63.0067 80.1826 62.8072C81.9871 61.9996 82.3373 61.2893 81.6369 59.2655C80.9171 57.1978 80.6593 54.4734 82.3519 52.3133C82.3519 52.1576 82.3567 52.0019 82.3567 51.8462C82.8675 50.9997 83.7624 50.8051 84.6136 50.5813C91.6321 48.7326 98.6798 47.0103 105.742 45.327C108.033 44.7821 108.291 45.0449 108.368 47.5163C108.383 47.9882 108.252 48.4893 108.617 48.9029C109.239 50.9705 109.166 53.1014 109.186 55.2226C108.694 55.8113 108.437 56.4632 108.631 57.2367H108.621Z" fill="#075284"/>
<path d="M108.607 48.9029C107.43 48.1585 109.088 46.0033 107.259 45.8184C106.136 45.7065 104.939 46.412 103.762 46.699C96.6271 48.4212 89.4919 50.1289 82.3567 51.8462C80.9753 50.1727 80.9705 47.7596 82.3567 45.9936C90.5863 44.0232 98.8159 42.0528 107.045 40.0728C107.259 40.0192 107.435 39.8003 107.624 39.6544C107.751 39.669 107.872 39.6933 107.989 39.7371C108.865 41.1139 107.974 42.7145 108.548 44.1302C108.573 45.7211 108.592 47.312 108.616 48.9077L108.607 48.9029Z" fill="#07395C"/>
<path d="M108.543 44.1254C107.819 42.7291 108.208 41.1918 107.984 39.7322C109.137 41.075 108.5 42.6416 108.543 44.1254Z" fill="#AF884C"/>
<path d="M29.876 35.2904C30.7369 36.677 30.1484 38.2095 30.304 39.6641C29.3653 38.2824 30.0073 36.7499 29.876 35.2904Z" fill="#194779"/>
<path d="M109.633 86.9575C110.134 86.2132 110.12 85.3666 110.129 84.5201C110.655 83.5374 110.625 82.4817 110.567 81.4162C109.312 81.5865 107.761 81.4746 107.177 82.8028C104.181 89.6139 99.2586 94.9168 94.0008 99.9716C93.7965 100.434 93.9376 100.852 94.1613 101.261C94.2926 101.451 94.3996 101.645 94.492 101.845C94.5844 102.647 94.7304 103.436 94.959 104.209C94.9735 104.705 94.959 105.202 94.9735 105.698C95.0806 107.308 96.0582 108.018 97.5514 108.203C98.6701 108.466 99.0008 106.384 100.329 107.274C102.099 107.298 103.49 108.534 105.183 108.807C105.324 108.899 105.465 108.996 105.611 109.094C105.664 108.515 105.718 107.931 105.766 107.352" fill="#3E2D1C"/>
<path d="M59.9734 59.1195C57.5366 58.6525 55.1047 58.1903 52.6679 57.7233C52.5609 57.6551 52.4491 57.6308 52.3226 57.6503C51.3012 61.3623 50.6543 65.0987 51.5833 68.9373C51.8946 68.2659 52.2059 67.5945 52.5171 66.9231C54.5454 64.7338 55.2312 64.8214 56.5201 67.4145C56.6222 67.6237 56.8411 67.7745 57.0016 67.9545C57.0405 68.5724 57.0746 69.1902 57.1135 69.813C57.1183 70.9514 57.1281 72.0898 57.1329 73.2283C57.1426 73.5591 57.1475 73.8948 57.1572 74.2256C57.0162 75.15 57.0989 76.0451 57.5074 76.8965C57.4442 77.5679 57.3323 78.2636 58.4267 78.7063C58.4364 76.3759 58.5677 74.2986 59.0444 72.2698C60.4987 68.8254 63.3489 66.9815 66.6125 65.5609C68.8256 64.5976 70.9802 63.4981 73.1641 62.457C72.3762 61.8148 71.3985 61.7613 70.4647 61.5472C66.9676 60.7445 63.4705 59.932 59.9685 59.1244L59.9734 59.1195Z" fill="#3E2D1C"/>
<path d="M106.233 77.996C106.316 78.3414 106.457 78.3658 106.657 78.0739L107.099 76.6095C107.26 75.9673 107.42 75.3202 107.581 74.678L107.727 72.8634C108.067 71.1703 108.407 69.4773 108.753 67.7842C108.218 66.9036 107.897 65.9647 108.028 64.9138C108.086 64.3106 108.145 63.7122 108.203 63.1089C108.621 61.1677 109.808 59.2849 108.621 57.2319C108.393 57.3 108.232 57.4508 108.135 57.6649C107.736 57.9179 107.371 58.3022 106.939 58.4044C103.602 59.1779 100.217 59.7666 96.924 60.6764C95.0465 61.1969 92.9113 61.0656 91.3354 62.5299C93.6798 64.1549 96.496 64.6803 99.0543 65.8187C104.76 68.3583 106.768 71.6958 106.233 77.996Z" fill="#3E2D1C"/>
<path d="M70.2117 99.9034C69.7351 99.3731 69.273 98.8331 68.7817 98.3174C65.0512 94.3767 61.3839 90.3679 59.0979 85.3763C58.2272 83.4741 57.7117 81.5524 54.9782 81.6983C54.0735 81.747 53.0959 80.3653 52.1766 80.1512L52.021 80.3069C53.0716 87.8867 53.8206 95.5152 55.557 102.993C55.557 103.698 55.5765 104.399 56.0434 104.987C56.0191 105.98 55.985 106.977 56.52 107.877C56.5249 108.544 56.5006 109.215 56.9529 109.775C56.9967 110.062 57.0356 110.349 57.0794 110.636L57.3031 110.641L57.5268 110.611C60.2165 108.33 63.8012 108.057 66.8168 106.51C67.2448 106.291 67.595 106.943 67.8382 107.362C68.6553 107.026 69.4724 106.69 70.2847 106.35C71.0629 105.912 70.7224 105.163 70.7905 104.525C71.1164 104.019 71.1991 103.465 71.131 102.876C71.3012 102.234 71.4666 101.592 71.6368 100.945C71.3936 100.278 70.9656 99.8694 70.2117 99.8937V99.9034Z" fill="#3E2D1C"/>
<path d="M95.489 36.1759C97.6242 36.6673 99.7546 37.1538 101.89 37.6451C99.9929 37.8446 98.1349 37.8203 96.4277 36.7938C95.6203 37.0613 94.8129 37.1392 94.0153 36.7451C93.3587 36.4386 92.6972 36.137 92.0406 35.8305C91.2332 36.0786 90.4306 36.1808 89.6427 35.7672C89.1709 35.4267 88.704 35.091 88.2322 34.7504C90.9024 33.938 93.1884 35.0813 95.4841 36.1759H95.489Z" fill="#25476C"/>
<path d="M86.5835 35.2466H80.9755C80.9755 35.1347 80.9755 35.0228 80.9803 34.9109H86.6224C86.6078 35.0228 86.5932 35.1347 86.5786 35.2466H86.5835Z" fill="#01568E"/>
<path d="M85.8732 30.2113C86.8362 29.8951 87.342 30.1091 87.7457 30.7319C87.0599 30.8924 86.3985 31.1649 85.8732 30.2113Z" fill="#035399"/>
<path d="M103.49 38.9782C104.443 38.623 105.046 38.589 105.698 38.9101C105.085 39.3479 104.482 39.1922 103.49 38.9782Z" fill="#04509A"/>
<path d="M106.7 34.5704C106.029 34.8964 105.421 34.8672 104.614 34.5704C105.411 34.1909 106.014 34.2201 106.7 34.5704Z" fill="#07539D"/>
<path d="M89.6477 35.7623C90.4454 35.7818 91.2479 35.8061 92.0456 35.8256C91.2284 36.458 90.4259 36.4824 89.6477 35.7623Z" fill="#04529F"/>
<path d="M94.02 36.7451C94.8226 36.7597 95.6251 36.7791 96.4325 36.7937C95.6154 37.4359 94.8128 37.4456 94.02 36.7451Z" fill="#0C529B"/>
<path d="M96.9483 32.566C96.4521 32.9844 95.9804 32.9114 95.4502 32.6439C95.9463 32.2352 96.4181 32.2984 96.9483 32.566Z" fill="#045299"/>
<path d="M94.8225 27.2485C95.5424 26.9906 95.9752 26.9225 96.4373 27.2193C95.985 27.662 95.518 27.5404 94.8225 27.2485Z" fill="#025397"/>
<path d="M107.668 57.1054C106.938 56.2394 107.143 55.68 107.765 54.9843C108.242 55.7821 108.184 56.3562 107.668 57.1054Z" fill="#01558F"/>
<path d="M111.506 57.1589C112.201 56.3562 111.569 55.5437 111.525 54.7361C111.822 52.362 111.987 49.9927 111.579 47.6234C111.588 47.4969 111.598 47.3655 111.608 47.239C111.725 46.9666 111.695 46.7136 111.52 46.4752L111.53 45.04C111.807 44.8162 111.807 44.5925 111.53 44.3735C111.306 42.3205 111.759 40.2285 111.141 38.1997C111.078 37.0321 110.392 36.458 109.297 36.278C109.054 36.278 108.816 36.3024 108.582 36.3656C108.573 36.3656 108.563 36.3753 108.548 36.3802C105.64 35.1688 102.532 34.765 99.4482 34.2736C98.6651 33.8163 97.8383 33.612 96.9336 33.7823C96.4716 33.7823 96.0095 33.7871 95.5474 33.792C93.7721 32.5611 91.705 32.4833 89.6671 32.3033C88.3198 31.5735 86.7925 31.5832 85.3431 31.2719C85.275 31.3351 85.2312 31.4032 85.1972 31.4713C85.168 31.4568 85.134 31.447 85.1048 31.4324C85.0124 30.5713 85.0124 29.681 84.2293 29.0826C83.5532 28.4842 82.9258 27.7641 81.8606 28.0998C79.1612 28.0317 78.2614 28.8491 78.2079 31.4227C78.3246 32.819 79.1904 33.4417 80.4793 33.6217C82.206 34.2201 84.0737 33.4806 85.7857 34.1958C86.6077 34.3709 87.5027 34.2055 88.2371 34.7553C90.7079 34.8574 93.0328 35.704 95.4307 36.171C95.4404 36.2245 95.4502 36.2829 95.4745 36.3461C97.5708 36.9981 99.6914 37.5138 101.89 37.6549C103.344 37.8592 104.803 38.0684 106.258 38.2727C106.258 38.2776 106.258 38.2824 106.258 38.2922C106.224 39.0706 106.725 39.5668 107.221 40.0582C107.386 40.2139 107.532 40.3842 107.678 40.5593C108.116 41.8437 107.887 43.1524 107.824 44.4562C107.96 45.9449 107.887 47.4385 107.95 48.9321C108.5 50.9754 107.97 53.155 108.738 55.1691C108.777 55.2372 108.826 55.2956 108.874 55.354C108.174 55.6946 108.101 56.3854 108.13 57.1346C108.665 59.1828 107.965 61.1142 107.585 63.07C107.449 63.7219 107.469 64.3836 107.41 65.0404C107.493 66.1399 107.517 67.2686 108.767 67.7989C110.027 67.3221 111.282 66.8453 112.542 66.3685C112.401 63.2792 111.331 60.2969 111.52 57.1687L111.506 57.1589ZM98.3295 34.4001C98.3295 34.4001 98.3198 34.4001 98.3149 34.4001C98.3149 34.4001 98.3247 34.4001 98.3295 34.4001Z" fill="#F4AF30"/>
</svg>
