<svg width="770" height="677" viewBox="0 0 770 677" fill="none" xmlns="http://www.w3.org/2000/svg">
<g clip-path="url(#clip0_3_457)">
<path d="M598.557 552.396C707.766 489.344 757.117 370.37 708.787 286.659C660.456 202.948 532.746 186.201 423.537 249.252C314.329 312.304 264.977 431.278 313.308 514.989C361.638 598.7 489.349 615.447 598.557 552.396Z" fill="url(#paint0_radial_3_457)"/>
<path d="M528.14 384.48L580.04 413.98L631.88 443.58L644.84 450.98L651.32 454.68C652.4 455.31 653.49 455.87 654.54 456.61C655.09 456.93 655.55 457.38 656.03 457.8C656.53 458.19 656.9 458.72 657.33 459.19C660.62 463.14 661.07 469.03 658.72 473.54C657.58 475.82 655.68 477.69 653.48 478.94L647.02 482.67L595.34 512.55L491.85 572.09L440.11 601.85L388.31 631.51L439.93 601.53L491.61 571.65L594.97 511.9L646.71 482.13L653.18 478.41C655.3 477.21 657.1 475.44 658.2 473.26C660.45 468.96 660.04 463.31 656.9 459.53C656.49 459.08 656.14 458.57 655.66 458.2C655.2 457.8 654.77 457.37 654.24 457.06C653.26 456.36 652.13 455.78 651.06 455.15L644.59 451.44L631.65 444.01L579.88 414.3L528.16 384.49L528.14 384.48Z" fill="url(#paint1_linear_3_457)"/>
<path d="M0 636.63L71.9 594.93L143.86 553.34L215.83 511.76L251.81 490.97L260.81 485.77C262.3 484.9 263.83 484.05 265.28 483.15C266.73 482.29 267.93 481.08 268.93 479.74C270.85 477 271.63 473.46 270.96 470.17C270.66 468.53 270.03 466.93 269.07 465.56C268.13 464.19 266.94 462.95 265.5 462.08L193.56 420.5L175.56 410.11L166.56 404.92L162.06 402.32C161.31 401.87 160.55 401.5 159.82 400.97C159.46 400.71 159.07 400.49 158.73 400.21L157.74 399.32C156.5 398.06 155.46 396.58 154.79 394.93C154.15 393.28 153.82 391.51 153.82 389.74C153.88 386.2 155.36 382.67 158 380.28C158.34 379.99 158.66 379.68 159 379.41L160.11 378.67C160.85 378.18 161.61 377.79 162.36 377.35L166.87 374.77L175.89 369.62L248.06 328.39L266.12 318.11L275.15 312.97C278.07 311.17 281.49 309.9 283.48 307C284.5 305.62 285.2 304.01 285.56 302.33C285.92 300.64 285.79 298.9 285.82 297.17L285.85 286.78L285.9 266L285.95 286.78L285.98 297.17C285.96 298.89 286.1 300.65 285.74 302.37C285.38 304.07 284.68 305.72 283.65 307.13C282.63 308.55 281.3 309.73 279.79 310.61L275.29 313.2L266.29 318.38L248.28 328.75L176.18 370.11L167.17 375.28L162.66 377.86C161.92 378.3 161.13 378.7 160.43 379.17L159.37 379.87C159.04 380.13 158.73 380.43 158.41 380.7C155.9 382.98 154.5 386.35 154.44 389.73C154.44 391.42 154.76 393.11 155.38 394.68C156.01 396.25 157.01 397.65 158.19 398.85L159.14 399.69C159.46 399.96 159.83 400.17 160.18 400.41C160.86 400.9 161.66 401.29 162.39 401.74L166.89 404.33L175.9 409.51L193.91 419.87L265.96 461.36C267.49 462.29 268.76 463.61 269.76 465.08C270.79 466.55 271.45 468.25 271.77 470.01C272.48 473.52 271.64 477.28 269.59 480.2C268.53 481.63 267.24 482.91 265.7 483.82C264.21 484.74 262.7 485.56 261.2 486.44L252.2 491.62L216.18 512.35L144.14 553.81L72.1 595.27L0 636.63Z" fill="url(#paint2_linear_3_457)"/>
<path d="M558.32 429.65L662.02 488.81L674.98 496.21L681.46 499.91C682.54 500.54 683.63 501.1 684.68 501.84C685.23 502.16 685.69 502.61 686.16 503.02C686.66 503.41 687.03 503.94 687.46 504.4C690.74 508.33 691.19 514.21 688.84 518.71C687.7 520.98 685.81 522.85 683.61 524.1L677.15 527.83L625.47 557.71L522.09 617.43L470.3 647.12L418.47 676.74L418.43 676.67L470.03 646.65L521.67 616.7L625.14 557.13L676.88 527.36L683.35 523.64C685.48 522.44 687.28 520.66 688.38 518.48C690.64 514.17 690.22 508.5 687.08 504.71C686.67 504.26 686.32 503.75 685.83 503.37C685.37 502.97 684.93 502.54 684.4 502.23C683.41 501.52 682.29 500.95 681.22 500.32L674.75 496.61L661.81 489.18L558.28 429.72L558.32 429.65Z" fill="url(#paint3_linear_3_457)"/>
<path d="M614.23 239.09L387 109.02C386.18 108.55 385.29 108.56 384.53 108.88C384.38 108.94 384.23 109.01 384.09 109.1L379.92 111.16C379.01 111.61 378.33 112.52 378.33 113.68V263.72C378.33 264.73 378.87 265.67 379.75 266.17L606.98 396.24C607.81 396.71 608.71 396.7 609.48 396.37H609.49L609.67 396.29C609.73 396.26 609.8 396.23 609.86 396.19L613.33 394.36L613.35 394.34C614.61 394.1 615.66 393.03 615.66 391.58V241.54C615.66 240.53 615.12 239.59 614.24 239.09H614.23Z" fill="url(#paint4_linear_3_457)"/>
<path d="M606.98 396.24L379.75 266.17C378.87 265.67 378.33 264.73 378.33 263.72V113.68C378.33 111.51 380.67 110.15 382.55 111.23L609.78 241.3C610.66 241.8 611.2 242.74 611.2 243.75V393.79C611.2 395.96 608.86 397.32 606.98 396.24Z" fill="url(#paint5_linear_3_457)"/>
<path d="M386.8 260.45V123.42L602.74 247.03V384.06L386.8 260.45Z" fill="url(#paint6_linear_3_457)"/>
<path d="M608.93 404.77L608.89 399.65C609.03 398.58 608.59 397.44 607.52 396.83L380.31 266.77C379.44 266.27 378.36 266.27 377.49 266.77L245.5 343.19C244.5 343.77 244.05 344.8 244.11 345.81H244.09L244.12 350.77H244.13C243.99 351.85 244.43 352.98 245.5 353.6L471.3 482.85C473.05 483.85 475.19 483.84 476.93 482.84L607.51 407.23C608.39 406.72 608.84 405.86 608.89 404.97H608.91V404.79C608.91 404.79 608.91 404.77 608.91 404.76L608.93 404.77Z" fill="url(#paint7_linear_3_457)"/>
<path d="M471.31 477.33L245.51 348.08C243.62 347 243.62 344.28 245.5 343.19L377.49 266.77C378.36 266.27 379.43 266.26 380.31 266.77L607.52 396.83C609.41 397.91 609.42 400.63 607.53 401.72L476.95 477.33C475.21 478.34 473.06 478.34 471.32 477.34L471.31 477.33Z" fill="url(#paint8_linear_3_457)"/>
<g style="mix-blend-mode:soft-light">
<path d="M391.97 300.19L377.3 291.8L370.67 295.72L385.35 304.12L391.97 300.19Z" fill="white"/>
<path d="M413.59 312.55L398.92 304.16L392.29 308.08L406.97 316.48L413.59 312.55Z" fill="white"/>
<path d="M435.21 324.91L420.53 316.52L413.91 320.45L428.59 328.84L435.21 324.91Z" fill="white"/>
<path d="M456.82 337.27L442.15 328.88L435.53 332.81L450.2 341.2L456.82 337.27Z" fill="white"/>
<path d="M478.44 349.63L463.76 341.24L457.14 345.16L471.82 353.56L478.44 349.63Z" fill="white"/>
<path d="M500.06 361.99L485.38 353.6L478.76 357.53L493.44 365.92L500.06 361.99Z" fill="white"/>
<path d="M521.68 374.36L507 365.96L500.38 369.89L515.05 378.28L521.68 374.36Z" fill="white"/>
<path d="M543.3 386.72L528.62 378.32L522 382.25L536.67 390.64L543.3 386.72Z" fill="white"/>
<path d="M564.92 399.08L550.24 390.69L543.61 394.61L558.29 403L564.92 399.08Z" fill="white"/>
<path d="M427.71 404.39L370.59 371.73L348.89 384.59L406.01 417.25L427.71 404.39Z" fill="white"/>
<path d="M373.09 311.38L358.41 302.98L351.8 306.9L366.48 315.3L373.09 311.38Z" fill="white"/>
<path d="M394.71 323.74L380.03 315.34L373.42 319.26L388.1 327.66L394.71 323.74Z" fill="white"/>
<path d="M416.33 336.1L401.65 327.71L395.04 331.63L409.71 340.02L416.33 336.1Z" fill="white"/>
<path d="M437.94 348.46L423.27 340.07L416.66 343.99L431.32 352.38L437.94 348.46Z" fill="white"/>
<path d="M459.56 360.82L444.88 352.42L438.27 356.34L452.94 364.74L459.56 360.82Z" fill="white"/>
<path d="M481.18 373.18L466.5 364.79L459.89 368.71L474.56 377.1L481.18 373.18Z" fill="white"/>
<path d="M502.8 385.54L488.12 377.15L481.5 381.07L496.18 389.46L502.8 385.54Z" fill="white"/>
<path d="M524.42 397.9L509.74 389.51L503.12 393.43L517.8 401.82L524.42 397.9Z" fill="white"/>
<path d="M546.04 410.26L531.36 401.87L524.74 405.79L539.42 414.18L546.04 410.26Z" fill="white"/>
<path d="M364.35 316.55L349.67 308.16L343.05 312.09L357.73 320.48L364.35 316.55Z" fill="white"/>
<path d="M385.97 328.92L371.29 320.52L364.67 324.45L379.35 332.84L385.97 328.92Z" fill="white"/>
<path d="M407.59 341.28L392.91 332.88L386.29 336.81L400.96 345.2L407.59 341.28Z" fill="white"/>
<path d="M429.2 353.63L414.53 345.25L407.91 349.17L422.58 357.56L429.2 353.63Z" fill="white"/>
<path d="M450.82 365.99L436.14 357.6L429.52 361.53L444.19 369.92L450.82 365.99Z" fill="white"/>
<path d="M472.44 378.36L457.76 369.96L451.14 373.89L465.81 382.28L472.44 378.36Z" fill="white"/>
<path d="M494.06 390.72L479.38 382.33L472.75 386.25L487.43 394.64L494.06 390.72Z" fill="white"/>
<path d="M515.68 403.08L501 394.69L494.37 398.61L509.05 407.01L515.68 403.08Z" fill="white"/>
<path d="M537.3 415.44L522.62 407.05L515.99 410.97L530.67 419.37L537.3 415.44Z" fill="white"/>
<path d="M355.6 321.74L340.92 313.34L334.3 317.27L348.98 325.66L355.6 321.74Z" fill="white"/>
<path d="M377.22 334.1L362.54 325.71L355.92 329.63L370.6 338.02L377.22 334.1Z" fill="white"/>
<path d="M398.84 346.46L384.16 338.07L377.54 341.99L392.22 350.39L398.84 346.46Z" fill="white"/>
<path d="M420.45 358.82L405.78 350.43L399.16 354.35L413.83 362.74L420.45 358.82Z" fill="white"/>
<path d="M442.07 371.18L427.39 362.79L420.77 366.71L435.44 375.1L442.07 371.18Z" fill="white"/>
<path d="M463.69 383.54L449.01 375.15L442.39 379.07L457.06 387.47L463.69 383.54Z" fill="white"/>
<path d="M485.31 395.9L470.63 387.51L464.01 391.43L478.68 399.83L485.31 395.9Z" fill="white"/>
<path d="M506.93 408.26L492.25 399.87L485.62 403.8L500.3 412.19L506.93 408.26Z" fill="white"/>
<path d="M528.55 420.62L513.87 412.23L507.24 416.16L521.92 424.55L528.55 420.62Z" fill="white"/>
<path d="M346.85 326.92L332.18 318.53L325.55 322.45L340.23 330.85L346.85 326.92Z" fill="white"/>
<path d="M368.47 339.28L353.79 330.89L347.17 334.81L361.85 343.21L368.47 339.28Z" fill="white"/>
<path d="M390.09 351.64L375.41 343.25L368.79 347.18L383.47 355.57L390.09 351.64Z" fill="white"/>
<path d="M411.7 364L397.03 355.61L390.41 359.54L405.08 367.93L411.7 364Z" fill="white"/>
<path d="M433.32 376.36L418.64 367.97L412.02 371.89L426.7 380.29L433.32 376.36Z" fill="white"/>
<path d="M454.94 388.72L440.26 380.33L433.64 384.26L448.31 392.65L454.94 388.72Z" fill="white"/>
<path d="M476.56 401.08L461.88 392.69L455.26 396.62L469.93 405.01L476.56 401.08Z" fill="white"/>
<path d="M498.18 413.45L483.5 405.05L476.87 408.98L491.55 417.37L498.18 413.45Z" fill="white"/>
<path d="M519.8 425.81L505.12 417.42L498.49 421.34L513.17 429.73L519.8 425.81Z" fill="white"/>
<path d="M338.1 332.1L323.43 323.71L316.8 327.64L331.48 336.03L338.1 332.1Z" fill="white"/>
<path d="M359.72 344.47L345.04 336.07L338.42 340L353.1 348.39L359.72 344.47Z" fill="white"/>
<path d="M381.34 356.83L366.66 348.43L360.04 352.36L374.72 360.75L381.34 356.83Z" fill="white"/>
<path d="M402.95 369.18L388.28 360.8L381.66 364.72L396.33 373.11L402.95 369.18Z" fill="white"/>
<path d="M424.57 381.54L409.89 373.15L403.27 377.08L417.95 385.47L424.57 381.54Z" fill="white"/>
<path d="M446.19 393.91L431.51 385.51L424.89 389.44L439.56 397.83L446.19 393.91Z" fill="white"/>
<path d="M467.81 406.27L453.13 397.88L446.51 401.8L461.18 410.19L467.81 406.27Z" fill="white"/>
<path d="M489.43 418.63L474.75 410.24L468.13 414.16L482.8 422.56L489.43 418.63Z" fill="white"/>
<path d="M511.05 430.99L496.37 422.6L489.74 426.52L504.42 434.92L511.05 430.99Z" fill="white"/>
</g>
<g style="mix-blend-mode:hard-light">
<path d="M333.92 137.94L363.62 120.56L393.37 103.27L452.88 68.7L512.49 34.3L542.3 17.11L572.16 0L542.46 17.38L512.71 34.67L453.2 69.24L393.58 103.64L363.77 120.83L333.92 137.94Z" fill="url(#paint9_linear_3_457)"/>
</g>
<g style="mix-blend-mode:hard-light">
<path d="M267.87 40.05L297.73 57.16L327.54 74.36L387.16 108.75L446.67 143.33L476.42 160.62L506.12 177.99L476.26 160.89L446.45 143.69L386.84 109.3L327.33 74.72L297.58 57.43L267.87 40.05Z" fill="url(#paint10_linear_3_457)"/>
</g>
<path d="M310.16 132.41L305.21 129.33C304.29 128.69 303.04 128.55 301.94 129.18L246.92 160.67C245.97 161.22 245.38 162.23 245.38 163.33V293.31C245.38 294.39 245.93 295.26 246.7 295.8V295.82L246.84 295.91C246.88 295.93 246.91 295.96 246.95 295.98L252.08 299.18C252.98 299.72 254.14 299.82 255.19 299.22L310.21 267.73C311.16 267.18 311.75 266.17 311.75 265.07V135.09C311.75 133.89 311.08 132.92 310.16 132.41Z" fill="url(#paint11_linear_3_457)"/>
<path d="M250.61 166.59V296.57C250.61 298.92 253.15 300.4 255.19 299.23L310.21 267.74C311.16 267.19 311.75 266.18 311.75 265.08V135.09C311.75 132.74 309.21 131.26 307.17 132.43L252.15 163.92C251.2 164.47 250.61 165.48 250.61 166.58V166.59Z" fill="url(#paint12_linear_3_457)"/>
<path d="M256.75 174.25L302.58 148.02C304.62 146.85 307.16 148.33 307.16 150.68V254.76C307.16 255.86 306.57 256.87 305.62 257.42L259.79 283.65C257.75 284.82 255.21 283.34 255.21 280.99V176.91C255.21 175.81 255.8 174.8 256.75 174.25Z" fill="white"/>
<path d="M503.67 268.29V128.2L627.91 199.32V339.41L503.67 268.29Z" fill="url(#paint13_linear_3_457)"/>
<path d="M627.91 211.32V199.32L503.67 128.2V140.2L627.91 211.32Z" fill="url(#paint14_linear_3_457)"/>
<path d="M493.27 307.11V249.07L343.89 163.56V221.6L493.27 307.11Z" fill="url(#paint15_linear_3_457)"/>
<path d="M493.27 260.14V249.07L343.89 163.56V174.63L493.27 260.14Z" fill="url(#paint16_linear_3_457)"/>
<path d="M650.88 330.9L550.48 273.43V331.47L650.88 388.94V330.9Z" fill="url(#paint17_linear_3_457)"/>
<path d="M650.88 330.9L550.48 273.43V284.5L650.88 341.97V330.9Z" fill="url(#paint18_linear_3_457)"/>
<g style="mix-blend-mode:hard-light">
<path d="M508.79 130.35L538.64 147.46L568.45 164.65L628.07 199.04L687.58 233.62L717.33 250.91L747.03 268.29L717.17 251.18L687.37 233.98L627.75 199.59L568.24 165.01L538.49 147.72L508.79 130.35Z" fill="url(#paint19_linear_3_457)"/>
</g>
<g style="mix-blend-mode:hard-light">
<path d="M508.79 268.29L538.49 250.91L568.24 233.62L627.75 199.04L687.37 164.65L717.17 147.46L747.03 130.35L717.33 147.72L687.58 165.02L628.07 199.59L568.45 233.98L538.64 251.18L508.79 268.29Z" fill="url(#paint20_linear_3_457)"/>
</g>
<g style="mix-blend-mode:hard-light">
<path d="M431.35 327.09L461.06 309.71L490.81 292.42L550.32 257.84L609.93 223.45L639.74 206.25L669.6 189.15L639.9 206.52L610.14 223.81L550.64 258.39L491.02 292.78L461.21 309.98L431.35 327.09Z" fill="url(#paint21_linear_3_457)"/>
</g>
<g style="mix-blend-mode:hard-light">
<path d="M531.75 398.84L561.46 381.46L591.21 364.17L650.72 329.6L710.33 295.2L740.14 278.01L770 260.9L740.3 278.28L710.54 295.57L651.04 330.14L591.42 364.54L561.61 381.73L531.75 398.84Z" fill="url(#paint22_linear_3_457)"/>
</g>
<g style="mix-blend-mode:hard-light">
<path d="M131.49 233.85L161.19 216.47L190.95 199.18L250.46 164.6L310.07 130.21L339.88 113.02L369.74 95.91L340.03 113.28L310.28 130.58L250.77 165.15L191.16 199.54L161.35 216.74L131.49 233.85Z" fill="url(#paint23_linear_3_457)"/>
</g>
<path d="M58.61 626.52L103.56 600.22L148.58 574.03L238.62 521.66L328.8 469.53L334.44 466.27C335.38 465.73 336.3 465.17 337.3 464.68C338.29 464.19 339.34 463.84 340.41 463.57C342.55 463.04 344.81 462.98 346.98 463.36C348.06 463.56 349.13 463.85 350.16 464.26C351.18 464.67 352.16 465.21 353.09 465.76L375.67 478.73L420.77 504.78L375.47 479.09L352.85 466.19C349.23 463.85 344.71 463.04 340.55 464.08C339.52 464.34 338.5 464.68 337.54 465.16C336.59 465.63 335.66 466.2 334.72 466.74L329.09 470.01L239.05 522.38L148.87 574.51L103.78 600.57L58.62 626.52H58.61Z" fill="url(#paint24_linear_3_457)"/>
<path d="M499.66 524.31L499.64 518.97C499.7 518.49 499.51 517.99 499.03 517.71L397.89 459.82C397.5 459.6 397.02 459.6 396.64 459.82L337.89 493.84C337.45 494.1 337.24 494.56 337.27 495.01L337.29 500.28C337.23 500.76 337.43 501.27 337.9 501.54L438.41 559.07C439.19 559.51 440.14 559.51 440.92 559.07L499.05 525.42C499.44 525.19 499.64 524.81 499.67 524.42H499.68V524.34C499.68 524.34 499.68 524.34 499.68 524.33L499.66 524.31Z" fill="url(#paint25_linear_3_457)"/>
<path d="M438.4 553.55L337.89 496.02C337.05 495.54 337.05 494.33 337.89 493.84L396.64 459.82C397.03 459.6 397.5 459.59 397.89 459.82L499.03 517.71C499.87 518.19 499.87 519.4 499.03 519.89L440.9 553.54C440.13 553.99 439.17 553.99 438.39 553.54L438.4 553.55Z" fill="url(#paint26_linear_3_457)"/>
<path d="M345.2 494.91L397.27 464.76L491.71 518.82L439.64 548.97L345.2 494.91Z" fill="url(#paint27_linear_3_457)"/>
<path d="M450.43 247.96V245.6L355.45 191.23V193.59L450.43 247.96Z" fill="#A5FFFF"/>
<path d="M450.43 255.83V253.47L355.45 199.11V201.46L450.43 255.83Z" fill="#A5FFFF"/>
<path d="M450.43 263.7V261.34L355.45 206.98V209.33L450.43 263.7Z" fill="#A5FFFF"/>
<path d="M450.43 271.57V269.21L355.45 214.85V217.2L450.43 271.57Z" fill="#A5FFFF"/>
<path d="M479.06 261.96L463.14 252.85V255.2L479.06 264.31V261.96Z" fill="#A5FFFF"/>
<path d="M479.06 269.83L463.14 260.72V263.07L479.06 272.18V269.83Z" fill="#A5FFFF"/>
<path d="M479.06 277.7L463.14 268.59V270.94L479.06 280.05V277.7Z" fill="#A5FFFF"/>
<path d="M479.06 285.57L463.14 276.46V278.81L479.06 287.93V285.57Z" fill="#A5FFFF"/>
<path d="M261.94 188.38V191.6L300.43 169.57V166.35L261.94 188.38Z" fill="url(#paint28_linear_3_457)"/>
<path d="M261.94 196.09V199.32L300.43 177.29V174.06L261.94 196.09Z" fill="url(#paint29_linear_3_457)"/>
<path d="M175.15 167.15V225.44L267.87 172.37V114.07L175.15 167.15Z" fill="url(#paint30_linear_3_457)"/>
<path d="M267.87 127.44V114.07L175.15 167.15V180.52L267.87 127.44Z" fill="url(#paint31_linear_3_457)"/>
<path d="M261.94 203.81V207.03L300.43 185.01V181.78L261.94 203.81Z" fill="url(#paint32_linear_3_457)"/>
<path d="M261.94 211.53V214.75L300.43 192.72V189.5L261.94 211.53Z" fill="url(#paint33_linear_3_457)"/>
<path d="M261.94 229.06V232.29L300.43 210.26V207.03L261.94 229.06Z" fill="url(#paint34_linear_3_457)"/>
<path d="M261.94 236.78V240L300.43 217.98V214.75L261.94 236.78Z" fill="url(#paint35_linear_3_457)"/>
<path d="M261.94 244.5V247.72L300.43 225.69V222.47L261.94 244.5Z" fill="url(#paint36_linear_3_457)"/>
<g style="mix-blend-mode:hard-light">
<path d="M133.2 97.62L163.05 114.72L192.86 131.92L252.48 166.31L311.99 200.89L341.74 218.18L371.44 235.55L341.58 218.45L311.77 201.25L252.16 166.86L192.65 132.28L162.9 114.99L133.2 97.62Z" fill="url(#paint37_linear_3_457)"/>
</g>
</g>
<defs>
<radialGradient id="paint0_radial_3_457" cx="0" cy="0" r="1" gradientUnits="userSpaceOnUse" gradientTransform="translate(503.412 387.299) rotate(35.3144) scale(194.963 253.198)">
<stop stop-color="#213C84"/>
<stop offset="0.841" stop-color="#213C84" stop-opacity="0"/>
</radialGradient>
<linearGradient id="paint1_linear_3_457" x1="445.08" y1="467.55" x2="555.45" y2="577.92" gradientUnits="userSpaceOnUse">
<stop stop-color="#3BB7FE"/>
<stop offset="1" stop-color="#358CFF"/>
</linearGradient>
<linearGradient id="paint2_linear_3_457" x1="332.03" y1="312.13" x2="3.75999" y2="640.39" gradientUnits="userSpaceOnUse">
<stop stop-color="#3BB7FE"/>
<stop offset="1" stop-color="#358CFF"/>
</linearGradient>
<linearGradient id="paint3_linear_3_457" x1="475.21" y1="512.77" x2="585.62" y2="623.18" gradientUnits="userSpaceOnUse">
<stop stop-color="#3BB7FE"/>
<stop offset="1" stop-color="#358CFF"/>
</linearGradient>
<linearGradient id="paint4_linear_3_457" x1="367.61" y1="123.25" x2="626.37" y2="382.02" gradientUnits="userSpaceOnUse">
<stop stop-color="#62D1FF"/>
<stop offset="1" stop-color="#9CF1FF"/>
</linearGradient>
<linearGradient id="paint5_linear_3_457" x1="365.93" y1="124.91" x2="623.6" y2="382.57" gradientUnits="userSpaceOnUse">
<stop stop-color="#621DB6"/>
<stop offset="1" stop-color="#291D8C"/>
</linearGradient>
<linearGradient id="paint6_linear_3_457" x1="375.62" y1="134.59" x2="613.91" y2="372.88" gradientUnits="userSpaceOnUse">
<stop stop-color="#2A58FF"/>
<stop offset="1" stop-color="#2B75FB"/>
</linearGradient>
<linearGradient id="paint7_linear_3_457" x1="319.93" y1="268.62" x2="533.1" y2="481.79" gradientUnits="userSpaceOnUse">
<stop stop-color="#2A58FF"/>
<stop offset="1" stop-color="#2B75FB"/>
</linearGradient>
<linearGradient id="paint8_linear_3_457" x1="321.3" y1="267.24" x2="531.72" y2="477.66" gradientUnits="userSpaceOnUse">
<stop stop-color="#9CF1FF"/>
<stop offset="1" stop-color="#62D1FF"/>
</linearGradient>
<linearGradient id="paint9_linear_3_457" x1="427.74" y1="43.68" x2="478.33" y2="94.26" gradientUnits="userSpaceOnUse">
<stop stop-color="#62D1FF" stop-opacity="0"/>
<stop offset="0.5" stop-color="#9CF1FF"/>
<stop offset="1" stop-color="#62D1FF" stop-opacity="0"/>
</linearGradient>
<linearGradient id="paint10_linear_3_457" x1="361.7" y1="134.32" x2="412.29" y2="83.73" gradientUnits="userSpaceOnUse">
<stop stop-color="#62D1FF" stop-opacity="0"/>
<stop offset="0.5" stop-color="#9CF1FF"/>
<stop offset="1" stop-color="#62D1FF" stop-opacity="0"/>
</linearGradient>
<linearGradient id="paint11_linear_3_457" x1="235.91" y1="171.54" x2="321.23" y2="256.86" gradientUnits="userSpaceOnUse">
<stop stop-color="#621DB6"/>
<stop offset="1" stop-color="#291D8C"/>
</linearGradient>
<linearGradient id="paint12_linear_3_457" x1="240.64" y1="175.29" x2="321.73" y2="256.37" gradientUnits="userSpaceOnUse">
<stop stop-color="#3BB7FE"/>
<stop offset="1" stop-color="#358CFF"/>
</linearGradient>
<linearGradient id="paint13_linear_3_457" x1="481.93" y1="149.94" x2="649.65" y2="317.67" gradientUnits="userSpaceOnUse">
<stop stop-color="#62D1FF"/>
<stop offset="1" stop-color="#9CF1FF" stop-opacity="0"/>
</linearGradient>
<linearGradient id="paint14_linear_3_457" x1="513.95" y1="117.92" x2="617.63" y2="221.6" gradientUnits="userSpaceOnUse">
<stop stop-color="white"/>
<stop offset="1" stop-color="white" stop-opacity="0"/>
</linearGradient>
<linearGradient id="paint15_linear_3_457" x1="345.35" y1="162.1" x2="491.81" y2="308.57" gradientUnits="userSpaceOnUse">
<stop stop-color="#62D1FF"/>
<stop offset="1" stop-color="#9CF1FF" stop-opacity="0"/>
</linearGradient>
<linearGradient id="paint16_linear_3_457" x1="357.09" y1="150.36" x2="480.07" y2="273.34" gradientUnits="userSpaceOnUse">
<stop stop-color="white"/>
<stop offset="1" stop-color="white" stop-opacity="0"/>
</linearGradient>
<linearGradient id="paint17_linear_3_457" x1="546.7" y1="277.21" x2="693.16" y2="423.67" gradientUnits="userSpaceOnUse">
<stop stop-color="#62D1FF"/>
<stop offset="1" stop-color="#9CF1FF" stop-opacity="0"/>
</linearGradient>
<linearGradient id="paint18_linear_3_457" x1="558.44" y1="265.46" x2="681.42" y2="388.44" gradientUnits="userSpaceOnUse">
<stop stop-color="white"/>
<stop offset="1" stop-color="white" stop-opacity="0"/>
</linearGradient>
<linearGradient id="paint19_linear_3_457" x1="602.62" y1="224.61" x2="653.2" y2="174.02" gradientUnits="userSpaceOnUse">
<stop stop-color="#62D1FF" stop-opacity="0"/>
<stop offset="0.5" stop-color="#9CF1FF"/>
<stop offset="1" stop-color="#62D1FF" stop-opacity="0"/>
</linearGradient>
<linearGradient id="paint20_linear_3_457" x1="602.62" y1="174.02" x2="653.2" y2="224.61" gradientUnits="userSpaceOnUse">
<stop stop-color="#62D1FF" stop-opacity="0"/>
<stop offset="0.5" stop-color="#9CF1FF"/>
<stop offset="1" stop-color="#62D1FF" stop-opacity="0"/>
</linearGradient>
<linearGradient id="paint21_linear_3_457" x1="525.18" y1="232.82" x2="575.77" y2="283.41" gradientUnits="userSpaceOnUse">
<stop stop-color="#62D1FF" stop-opacity="0"/>
<stop offset="0.5" stop-color="#9CF1FF"/>
<stop offset="1" stop-color="#62D1FF" stop-opacity="0"/>
</linearGradient>
<linearGradient id="paint22_linear_3_457" x1="625.58" y1="304.58" x2="676.17" y2="355.16" gradientUnits="userSpaceOnUse">
<stop stop-color="#62D1FF" stop-opacity="0"/>
<stop offset="0.5" stop-color="#9CF1FF"/>
<stop offset="1" stop-color="#62D1FF" stop-opacity="0"/>
</linearGradient>
<linearGradient id="paint23_linear_3_457" x1="225.32" y1="139.58" x2="275.91" y2="190.17" gradientUnits="userSpaceOnUse">
<stop stop-color="#62D1FF" stop-opacity="0"/>
<stop offset="0.5" stop-color="#9CF1FF"/>
<stop offset="1" stop-color="#62D1FF" stop-opacity="0"/>
</linearGradient>
<linearGradient id="paint24_linear_3_457" x1="58.61" y1="544.82" x2="421.19" y2="544.82" gradientUnits="userSpaceOnUse">
<stop stop-color="#3BB7FE"/>
<stop offset="1" stop-color="#358CFF"/>
</linearGradient>
<linearGradient id="paint25_linear_3_457" x1="370.24" y1="461.41" x2="466.67" y2="557.83" gradientUnits="userSpaceOnUse">
<stop stop-color="#2A58FF"/>
<stop offset="1" stop-color="#2B75FB"/>
</linearGradient>
<linearGradient id="paint26_linear_3_457" x1="371.62" y1="460.03" x2="465.29" y2="553.7" gradientUnits="userSpaceOnUse">
<stop stop-color="#9CF1FF"/>
<stop offset="1" stop-color="#62D1FF"/>
</linearGradient>
<linearGradient id="paint27_linear_3_457" x1="375.85" y1="464.26" x2="461.06" y2="549.47" gradientUnits="userSpaceOnUse">
<stop stop-color="#621DB6"/>
<stop offset="1" stop-color="#291D8C"/>
</linearGradient>
<linearGradient id="paint28_linear_3_457" x1="276.27" y1="174.05" x2="286.11" y2="183.89" gradientUnits="userSpaceOnUse">
<stop stop-color="#62D1FF"/>
<stop offset="1" stop-color="#9CF1FF" stop-opacity="0"/>
</linearGradient>
<linearGradient id="paint29_linear_3_457" x1="276.27" y1="181.77" x2="286.11" y2="191.61" gradientUnits="userSpaceOnUse">
<stop stop-color="#62D1FF"/>
<stop offset="1" stop-color="#9CF1FF" stop-opacity="0"/>
</linearGradient>
<linearGradient id="paint30_linear_3_457" x1="197.03" y1="145.27" x2="246" y2="194.24" gradientUnits="userSpaceOnUse">
<stop stop-color="#62D1FF"/>
<stop offset="1" stop-color="#9CF1FF" stop-opacity="0"/>
</linearGradient>
<linearGradient id="paint31_linear_3_457" x1="208.26" y1="134.04" x2="234.77" y2="160.55" gradientUnits="userSpaceOnUse">
<stop stop-color="white"/>
<stop offset="1" stop-color="white" stop-opacity="0"/>
</linearGradient>
<linearGradient id="paint32_linear_3_457" x1="276.27" y1="189.49" x2="286.11" y2="199.33" gradientUnits="userSpaceOnUse">
<stop stop-color="#62D1FF"/>
<stop offset="1" stop-color="#9CF1FF" stop-opacity="0"/>
</linearGradient>
<linearGradient id="paint33_linear_3_457" x1="276.27" y1="197.2" x2="286.11" y2="207.04" gradientUnits="userSpaceOnUse">
<stop stop-color="#62D1FF"/>
<stop offset="1" stop-color="#9CF1FF" stop-opacity="0"/>
</linearGradient>
<linearGradient id="paint34_linear_3_457" x1="276.27" y1="214.74" x2="286.11" y2="224.58" gradientUnits="userSpaceOnUse">
<stop stop-color="#62D1FF"/>
<stop offset="1" stop-color="#9CF1FF" stop-opacity="0"/>
</linearGradient>
<linearGradient id="paint35_linear_3_457" x1="276.27" y1="222.46" x2="286.11" y2="232.3" gradientUnits="userSpaceOnUse">
<stop stop-color="#62D1FF"/>
<stop offset="1" stop-color="#9CF1FF" stop-opacity="0"/>
</linearGradient>
<linearGradient id="paint36_linear_3_457" x1="276.27" y1="230.17" x2="286.11" y2="240.01" gradientUnits="userSpaceOnUse">
<stop stop-color="#62D1FF"/>
<stop offset="1" stop-color="#9CF1FF" stop-opacity="0"/>
</linearGradient>
<linearGradient id="paint37_linear_3_457" x1="227.02" y1="191.88" x2="277.61" y2="141.29" gradientUnits="userSpaceOnUse">
<stop stop-color="#62D1FF" stop-opacity="0"/>
<stop offset="0.5" stop-color="#9CF1FF"/>
<stop offset="1" stop-color="#62D1FF" stop-opacity="0"/>
</linearGradient>
<clipPath id="clip0_3_457">
<rect width="770" height="676.75" fill="white"/>
</clipPath>
</defs>
</svg>
